<svg width="67" height="66" viewBox="0 0 67 66" fill="none" xmlns="http://www.w3.org/2000/svg">
<path d="M23.7295 2.34851V14.7235C23.8283 16.4462 24.5853 18.0683 25.8484 19.2638L33.5003 25.7235V2.34851H23.7295Z" fill="#9FEAFF"/>
<path d="M43.2708 14.7235V2.34851H33.5V25.7235L41.152 19.2638C42.415 18.0683 43.172 16.4462 43.2708 14.7235Z" fill="#9FEAFF"/>
<path d="M46.0627 51.8485L52.0536 45.9443C52.3153 45.6864 52.4623 45.3367 52.4623 44.9721C52.4623 44.6075 52.3153 44.2579 52.0536 44L46.0627 38.0985L47.1793 32.571C47.23 32.4209 47.2373 32.2598 47.2004 32.1058C47.1634 31.9518 47.0837 31.811 46.9701 31.6991C46.8565 31.5872 46.7136 31.5087 46.5573 31.4723C46.4009 31.4359 46.2374 31.4431 46.085 31.493L40.4738 32.593L33.5002 25.7235L26.521 32.5985L20.9098 31.4985C20.7574 31.4486 20.5938 31.4414 20.4375 31.4778C20.2812 31.5142 20.1382 31.5927 20.0247 31.7046C19.9111 31.8165 19.8314 31.9573 19.7944 32.1113C19.7575 32.2653 19.7647 32.4264 19.8154 32.5765L20.9321 38.104L14.9468 44C14.6851 44.2579 14.5381 44.6075 14.5381 44.9721C14.5381 45.3367 14.6851 45.6864 14.9468 45.9443L20.9377 51.8485L19.821 57.376C19.7703 57.5262 19.763 57.6872 19.8 57.8412C19.8369 57.9952 19.9167 58.136 20.0303 58.2479C20.1438 58.3598 20.2868 58.4383 20.4431 58.4747C20.5994 58.5111 20.7629 58.504 20.9154 58.454L26.5266 57.354L32.5119 63.25C32.6416 63.3781 32.7956 63.4797 32.9652 63.549C33.1348 63.6183 33.3166 63.654 33.5002 63.654C33.6838 63.654 33.8656 63.6183 34.0352 63.549C34.2047 63.4797 34.3588 63.3781 34.4884 63.25L40.4793 57.3485L46.0906 58.4485C46.243 58.4985 46.4065 58.5056 46.5628 58.4692C46.7192 58.4328 46.8621 58.3543 46.9757 58.2424C47.0893 58.1305 47.169 57.9897 47.206 57.8357C47.2429 57.6817 47.2356 57.5206 47.1849 57.3705L46.0627 51.8485Z" fill="#9FEAFF"/>
<path d="M19.821 57.376C19.7791 57.5257 19.7757 57.6833 19.8113 57.8346C19.8469 57.9859 19.9203 58.126 20.0248 58.2423L46.9756 31.6938C46.8575 31.5908 46.7153 31.5185 46.5617 31.4835C46.4082 31.4484 46.2481 31.4517 46.0962 31.493L40.4849 32.593L33.5002 25.7235L26.521 32.5985L20.9098 31.4985C20.7574 31.4486 20.5938 31.4414 20.4375 31.4778C20.2812 31.5142 20.1382 31.5927 20.0247 31.7046C19.9111 31.8165 19.8314 31.9573 19.7944 32.1113C19.7575 32.2653 19.7647 32.4264 19.8154 32.5765L20.9321 38.104L14.9468 44C14.6851 44.2579 14.5381 44.6075 14.5381 44.9721C14.5381 45.3367 14.6851 45.6864 14.9468 45.9443L20.9377 51.8485L19.821 57.376Z" fill="#DFF9FF"/>
<path d="M26.5205 44.9735C26.5205 46.7969 27.2558 48.5456 28.5647 49.8349C29.8735 51.1242 31.6487 51.8485 33.4997 51.8485C35.3507 51.8485 37.1258 51.1242 38.4347 49.8349C39.7435 48.5456 40.4788 46.7969 40.4788 44.9735C40.4788 43.1501 39.7435 41.4015 38.4347 40.1122C37.1258 38.8228 35.3507 38.0985 33.4997 38.0985C31.6487 38.0985 29.8735 38.8228 28.5647 40.1122C27.2558 41.4015 26.5205 43.1501 26.5205 44.9735Z" fill="#9FEAFF"/>
<path d="M28.564 49.8355C27.2549 48.546 26.5195 46.7971 26.5195 44.9735C26.5195 43.1499 27.2549 41.401 28.564 40.1115C29.873 38.822 31.6484 38.0976 33.4996 38.0976C35.3509 38.0976 37.1263 38.822 38.4353 40.1115L28.564 49.8355Z" fill="#DFF9FF"/>
<path d="M46.0627 51.8485L52.0536 45.9443C52.3153 45.6864 52.4623 45.3367 52.4623 44.9721C52.4623 44.6075 52.3153 44.2579 52.0536 44L46.0627 38.0985L47.1793 32.571C47.23 32.4209 47.2373 32.2598 47.2004 32.1058C47.1634 31.9518 47.0837 31.811 46.9701 31.6991C46.8565 31.5872 46.7136 31.5087 46.5573 31.4723C46.4009 31.4359 46.2374 31.4431 46.085 31.493L40.4738 32.593L33.5002 25.7235L26.521 32.5985L20.9098 31.4985C20.7574 31.4486 20.5938 31.4414 20.4375 31.4778C20.2812 31.5142 20.1382 31.5927 20.0247 31.7046C19.9111 31.8165 19.8314 31.9573 19.7944 32.1113C19.7575 32.2653 19.7647 32.4264 19.8154 32.5765L20.9321 38.104L14.9468 44C14.6851 44.2579 14.5381 44.6075 14.5381 44.9721C14.5381 45.3367 14.6851 45.6864 14.9468 45.9443L20.9377 51.8485L19.821 57.376C19.7703 57.5262 19.763 57.6872 19.8 57.8412C19.8369 57.9952 19.9167 58.136 20.0303 58.2479C20.1438 58.3598 20.2868 58.4383 20.4431 58.4747C20.5994 58.5111 20.7629 58.504 20.9154 58.454L26.5266 57.354L32.5119 63.25C32.6416 63.3781 32.7956 63.4797 32.9652 63.549C33.1348 63.6183 33.3166 63.654 33.5002 63.654C33.6838 63.654 33.8656 63.6183 34.0352 63.549C34.2047 63.4797 34.3588 63.3781 34.4884 63.25L40.4793 57.3485L46.0906 58.4485C46.243 58.4985 46.4065 58.5056 46.5628 58.4692C46.7192 58.4328 46.8621 58.3543 46.9757 58.2424C47.0893 58.1305 47.169 57.9897 47.206 57.8357C47.2429 57.6817 47.2356 57.5206 47.1849 57.3705L46.0627 51.8485Z" stroke="#00303E" stroke-linecap="round" stroke-linejoin="round"/>
<path d="M43.2712 14.7235C43.1723 16.4462 42.4153 18.0683 41.1523 19.2638L33.5003 25.7235L25.8484 19.2638C24.5853 18.0683 23.8283 16.4462 23.7295 14.7235V2.34851H43.2712V14.7235Z" stroke="#00303E" stroke-linecap="round" stroke-linejoin="round"/>
<path d="M33.5 2.34851V25.7235" stroke="#00303E" stroke-linecap="round" stroke-linejoin="round"/>
<path d="M15.3545 2.34851H51.6462" stroke="#00303E" stroke-linecap="round" stroke-linejoin="round"/>
<path d="M26.5205 44.9735C26.5205 46.7969 27.2558 48.5456 28.5647 49.8349C29.8735 51.1242 31.6487 51.8485 33.4997 51.8485C35.3507 51.8485 37.1258 51.1242 38.4347 49.8349C39.7435 48.5456 40.4788 46.7969 40.4788 44.9735C40.4788 43.1501 39.7435 41.4015 38.4347 40.1122C37.1258 38.8228 35.3507 38.0985 33.4997 38.0985C31.6487 38.0985 29.8735 38.8228 28.5647 40.1122C27.2558 41.4015 26.5205 43.1501 26.5205 44.9735Z" stroke="#00303E" stroke-linecap="round" stroke-linejoin="round"/>
</svg>
