<svg width="10" height="11" viewBox="0 0 10 11" fill="none" xmlns="http://www.w3.org/2000/svg">
<g clip-path="url(#clip0_274_473)">
<path d="M8.16732 3.4375V3.80417V4.17083V5.5C8.16732 6.82917 7.20898 7.88333 6.00065 7.88333H3.70898H3.37565C3.25065 7.88333 3.16732 7.88333 3.08398 7.92917C3.16732 8.61667 3.75065 9.16667 4.41732 9.16667H6.83398C7.08398 9.16667 7.37565 9.25833 7.58398 9.44167L9.04232 10.5875C9.08398 10.6333 9.16732 10.6333 9.25065 10.6333C9.29232 10.6333 9.33398 10.6333 9.41732 10.5875C9.54232 10.5417 9.58398 10.4042 9.58398 10.2667V4.99583C9.58398 4.125 8.95898 3.4375 8.16732 3.4375Z" fill="#8A99E9"/>
<path d="M3.37533 7.10419H3.70866H6.04199C6.87533 7.10419 7.54199 6.37085 7.54199 5.45419V4.17085V3.80419V3.43752V2.56669C7.54199 1.65002 6.87533 0.916687 6.04199 0.916687H1.91699C1.08366 0.916687 0.416992 1.65002 0.416992 2.56669V8.38752C0.416992 8.52502 0.500326 8.66252 0.583659 8.70835C0.625326 8.70835 0.708659 8.70835 0.750326 8.70835C0.833659 8.70835 0.875325 8.70835 0.958659 8.66252L2.54199 7.42502C2.70866 7.28752 2.87533 7.24169 3.04199 7.15002C3.12533 7.15002 3.25033 7.10419 3.37533 7.10419Z" fill="#8A99E9"/>
</g>
<defs>
<clipPath id="clip0_274_473">
<rect width="10" height="11" fill="white"/>
</clipPath>
</defs>
</svg>
