<svg width="13" height="13" viewBox="0 0 13 13" fill="none" xmlns="http://www.w3.org/2000/svg">
<g opacity="0.5">
<path d="M8.72116 2.70831H4.27949C2.22116 2.70831 0.541992 4.38748 0.541992 6.44581V6.55415C0.541992 8.61248 2.22116 10.2916 4.27949 10.2916H8.72116C10.7795 10.2916 12.4587 8.61248 12.4587 6.55415V6.44581C12.4587 4.38748 10.7795 2.70831 8.72116 2.70831Z" fill="#8A99E9"/>
<path d="M5.14557 5.95831H4.76641V5.57914C4.76641 5.25414 4.54974 5.03748 4.22474 5.03748C3.89974 5.03748 3.68307 5.25414 3.68307 5.57914V5.95831H3.35807C3.03307 5.95831 2.81641 6.17498 2.81641 6.49998C2.81641 6.82498 3.03307 7.04164 3.35807 7.04164H3.73724V7.42081C3.73724 7.74581 3.95391 7.96248 4.27891 7.96248C4.60391 7.96248 4.82057 7.74581 4.82057 7.42081V7.04164H5.19974C5.52474 7.04164 5.74141 6.82498 5.74141 6.49998C5.74141 6.17498 5.47057 5.95831 5.14557 5.95831Z" fill="#040A2F"/>
<path d="M8.07038 6.55415C8.45928 6.55415 8.77454 6.23888 8.77454 5.84998C8.77454 5.46108 8.45928 5.14581 8.07038 5.14581C7.68148 5.14581 7.36621 5.46108 7.36621 5.84998C7.36621 6.23888 7.68148 6.55415 8.07038 6.55415Z" fill="#040A2F"/>
<path d="M9.42487 7.90833C9.81377 7.90833 10.129 7.59307 10.129 7.20417C10.129 6.81527 9.81377 6.5 9.42487 6.5C9.03597 6.5 8.7207 6.81527 8.7207 7.20417C8.7207 7.59307 9.03597 7.90833 9.42487 7.90833Z" fill="#040A2F"/>
</g>
</svg>
