<svg width="10" height="14" viewBox="0 0 10 14" fill="none" xmlns="http://www.w3.org/2000/svg">
<path fill-rule="evenodd" clip-rule="evenodd" d="M4.02171 1.54098C3.85672 1.56502 3.69512 1.60832 3.54021 1.67C2.61807 2.03715 2.07099 2.99181 2.22044 3.97304L2.24113 4.10891C2.26678 4.27727 2.31099 4.44227 2.37296 4.60089L2.98289 6.16204C4.44234 6.0628 5.90729 6.07139 7.36579 6.18783L8.36322 6.26745C9.00861 6.31898 9.53561 6.80413 9.64023 7.44307C9.88136 8.91567 9.88136 10.4177 9.64023 11.8903C9.53561 12.5292 9.00861 13.0144 8.36322 13.0659L7.3658 13.1455C5.79104 13.2712 4.20876 13.2712 2.634 13.1455L1.63658 13.0659C0.991179 13.0144 0.464178 12.5292 0.359556 11.8903C0.118429 10.4177 0.118429 8.91567 0.359556 7.44307C0.464178 6.80413 0.991179 6.31898 1.63657 6.26745L1.94097 6.24315L1.44152 4.96479C1.35268 4.73739 1.28929 4.50084 1.25253 4.25948L1.23184 4.12361C1.01234 2.68238 1.81587 1.2802 3.17031 0.74093C3.39783 0.650343 3.63519 0.586742 3.87753 0.551432C5.32013 0.341231 6.71711 1.15379 7.24763 2.51168L7.29764 2.6397C7.38649 2.8671 7.44987 3.10365 7.48663 3.34501L7.58085 3.96369C7.60857 4.14568 7.48351 4.31569 7.30151 4.34341L6.97198 4.3936C6.78998 4.42132 6.61997 4.29625 6.59226 4.11425L6.49803 3.49558C6.47239 3.32722 6.42818 3.16222 6.3662 3.0036L6.31619 2.87559C5.955 1.95109 5.00389 1.39787 4.02171 1.54098ZM4.99988 8.66668C4.44759 8.66668 3.99988 9.1144 3.99988 9.66668C3.99988 10.219 4.44759 10.6667 4.99988 10.6667C5.55216 10.6667 5.99988 10.219 5.99988 9.66668C5.99988 9.1144 5.55216 8.66668 4.99988 8.66668Z" fill="#8A99E9"/>
</svg>
