<svg width="13" height="13" viewBox="0 0 13 13" fill="none" xmlns="http://www.w3.org/2000/svg">
<path d="M3.32824 3.99376C3.32824 2.89092 4.22227 1.99689 5.32512 1.99689C6.42796 1.99689 7.32199 2.89092 7.32199 3.99376C7.32199 5.09661 6.42796 5.99064 5.32512 5.99064C4.22227 5.99064 3.32824 5.09661 3.32824 3.99376Z" fill="#FF0000"/>
<path d="M1.19824 9.05251C1.19824 7.94967 2.09227 7.05564 3.19512 7.05564H3.37663C3.47487 7.05564 3.5725 7.07117 3.66589 7.10167L4.12677 7.25216C4.63877 7.41934 5.17701 7.4766 5.70698 7.42392C5.79227 7.41545 5.8578 7.50404 5.82552 7.58343C5.67454 7.9547 5.59137 8.36077 5.59137 8.78626C5.59137 9.45307 5.79564 10.0722 6.14501 10.5844C6.19379 10.6559 6.14691 10.7563 6.0604 10.7593C4.66534 10.8074 3.26674 10.7186 1.88478 10.493C1.48893 10.4284 1.19824 10.0864 1.19824 9.68527V9.05251Z" fill="#FF0000"/>
<path fill-rule="evenodd" clip-rule="evenodd" d="M6.39012 8.78626C6.39012 9.30378 6.55418 9.78299 6.83313 10.1747C6.98856 10.393 7.17966 10.5841 7.39793 10.7395C7.78964 11.0185 8.26885 11.1825 8.78637 11.1825C10.1098 11.1825 11.1826 10.1097 11.1826 8.78626C11.1826 8.26874 11.0186 7.78954 10.7396 7.39782C10.5842 7.17955 10.3931 6.98845 10.1748 6.83302C9.78309 6.55407 9.30389 6.39001 8.78637 6.39001C7.46296 6.39001 6.39012 7.46285 6.39012 8.78626ZM8.78637 10.3838C8.49011 10.3838 8.21268 10.3031 7.97485 10.1626L10.1627 7.97475C10.3032 8.21258 10.3839 8.49 10.3839 8.78626C10.3839 9.66854 9.66864 10.3838 8.78637 10.3838ZM7.41005 9.59778L9.59788 7.40994C9.36005 7.26941 9.08263 7.18876 8.78637 7.18876C7.90409 7.18876 7.18887 7.90399 7.18887 8.78626C7.18887 9.08252 7.26951 9.35995 7.41005 9.59778Z" fill="#FF0000"/>
</svg>
