<svg width="200" height="200" viewBox="0 0 200 200" fill="none" xmlns="http://www.w3.org/2000/svg">
<path d="M133.333 123.333V189.35C133.333 193.933 130.683 195.033 127.441 191.792L99.9993 164.367L72.5577 191.808C69.316 195.05 66.666 193.95 66.666 192.875V123.333H133.333Z" fill="#9FEAFF"/>
<path d="M33.334 72.7C33.334 90.3811 40.3578 107.338 52.8602 119.84C65.3626 132.343 82.3195 139.367 100.001 139.367C117.682 139.367 134.639 132.343 147.141 119.84C159.644 107.338 166.667 90.3811 166.667 72.7C166.667 55.0189 159.644 38.062 147.141 25.5596C134.639 13.0571 117.682 6.03334 100.001 6.03334C82.3195 6.03334 65.3626 13.0571 52.8602 25.5596C40.3578 38.062 33.334 55.0189 33.334 72.7Z" fill="#9FEAFF"/>
<path d="M52.858 119.842C40.4815 107.313 33.5652 90.396 33.6195 72.7851C33.6737 55.1742 40.694 38.3001 53.1474 25.8478C65.6008 13.3955 82.4755 6.37668 100.086 6.324C117.697 6.27132 134.614 13.1891 147.141 25.5667L52.858 119.842Z" fill="#DFF9FF"/>
<path d="M54.166 72.7C54.166 84.8558 58.9949 96.5136 67.5903 105.109C76.1857 113.704 87.8436 118.533 99.9993 118.533C112.155 118.533 123.813 113.704 132.408 105.109C141.004 96.5136 145.833 84.8558 145.833 72.7C145.833 60.5442 141.004 48.8864 132.408 40.2909C123.813 31.6955 112.155 26.8667 99.9993 26.8667C87.8436 26.8667 76.1857 31.6955 67.5903 40.2909C58.9949 48.8864 54.166 60.5442 54.166 72.7Z" fill="#9FEAFF"/>
<path d="M67.5926 105.108C59.0923 96.4934 54.3445 84.8661 54.385 72.7636C54.4256 60.6611 59.2512 49.0659 67.809 40.5081C76.3668 31.9503 87.9621 27.1246 100.065 27.0841C112.167 27.0435 123.794 31.7914 132.409 40.2917L67.5926 105.108Z" fill="#DFF9FF"/>
<path d="M133.333 151.2V189.367C133.333 193.95 130.683 195.05 127.441 191.808L99.9993 164.367L72.5577 191.808C69.316 195.05 66.666 193.95 66.666 192.875V151.208" stroke="#00303E" stroke-linecap="round" stroke-linejoin="round"/>
<path d="M98.1341 48.65C99.1591 46.6 100.834 46.6 101.859 48.65L109.709 64.3667H125.001C127.292 64.3667 127.659 65.4833 125.834 66.8667L112.951 76.3833L118.259 94.5833C118.901 96.7833 117.842 97.575 115.917 96.3417L100.001 86.1833L84.0841 96.025C82.1341 97.2333 81.0758 96.4333 81.7341 94.225L87.0341 76.4333L74.1674 66.8583C72.3258 65.4917 72.7008 64.3583 75.0008 64.3583H90.2758L98.1341 48.65Z" fill="#DFF9FF" stroke="#00303E" stroke-linecap="round" stroke-linejoin="round"/>
<path d="M33.334 72.7C33.334 90.3811 40.3578 107.338 52.8602 119.84C65.3626 132.343 82.3195 139.367 100.001 139.367C117.682 139.367 134.639 132.343 147.141 119.84C159.644 107.338 166.667 90.3811 166.667 72.7C166.667 55.0189 159.644 38.062 147.141 25.5596C134.639 13.0571 117.682 6.03334 100.001 6.03334C82.3195 6.03334 65.3626 13.0571 52.8602 25.5596C40.3578 38.062 33.334 55.0189 33.334 72.7Z" stroke="#00303E" stroke-linecap="round" stroke-linejoin="round"/>
<path d="M54.166 72.7C54.166 84.8558 58.9949 96.5136 67.5903 105.109C76.1857 113.704 87.8436 118.533 99.9993 118.533C112.155 118.533 123.813 113.704 132.408 105.109C141.004 96.5136 145.833 84.8558 145.833 72.7C145.833 60.5442 141.004 48.8864 132.408 40.2909C123.813 31.6955 112.155 26.8667 99.9993 26.8667C87.8436 26.8667 76.1857 31.6955 67.5903 40.2909C58.9949 48.8864 54.166 60.5442 54.166 72.7Z" stroke="#00303E" stroke-linecap="round" stroke-linejoin="round"/>
</svg>
