<svg width="200" height="200" viewBox="0 0 200 200" fill="none" xmlns="http://www.w3.org/2000/svg">
<path d="M100 186.892C138.258 186.892 169.433 192.142 170.833 155.783C170.862 155.031 170.687 154.286 170.326 153.625C169.965 152.965 169.432 152.415 168.783 152.033L103.642 113.7C102.529 113.133 101.299 112.837 100.05 112.837C98.8015 112.837 97.5707 113.133 96.4584 113.7L31.3167 152.033C30.6682 152.415 30.1352 152.965 29.7743 153.625C29.4134 154.286 29.238 155.031 29.2667 155.783C30.5667 192.142 61.7417 186.892 100 186.892Z" fill="#9FEAFF"/>
<path d="M170.833 124.1C170.833 126.392 169.216 127.317 167.241 126.15L103.591 88.7167C102.48 88.1457 101.249 87.8478 99.9994 87.8478C98.7501 87.8478 97.5188 88.1457 96.4077 88.7167L32.7577 126.15C30.7827 127.308 29.166 126.392 29.166 124.1V107.433C29.2372 106.179 29.5986 104.959 30.2219 103.869C30.8452 102.778 31.7133 101.848 32.7577 101.15L96.4077 63.7167C97.5188 63.1457 98.7501 62.8478 99.9994 62.8478C101.249 62.8478 102.48 63.1457 103.591 63.7167L167.241 101.15C168.286 101.847 169.155 102.777 169.779 103.868C170.402 104.958 170.763 106.179 170.833 107.433V124.1Z" fill="#9FEAFF"/>
<path d="M170.833 74.1C170.833 76.3917 169.216 77.3167 167.241 76.15L103.591 38.7083C102.48 38.1373 101.249 37.8395 99.9994 37.8395C98.7501 37.8395 97.5188 38.1373 96.4077 38.7083L32.7577 76.15C30.7827 77.3083 29.166 76.3917 29.166 74.1V57.4333C29.2372 56.1794 29.5986 54.9591 30.2219 53.8687C30.8452 52.7783 31.7133 51.8476 32.7577 51.15L96.4077 13.7083C97.5188 13.1373 98.7501 12.8395 99.9994 12.8395C101.249 12.8395 102.48 13.1373 103.591 13.7083L167.241 51.15C168.286 51.8467 169.155 52.7771 169.779 53.8677C170.402 54.9583 170.763 56.1791 170.833 57.4333V74.1Z" fill="#9FEAFF"/>
<path d="M99.9994 12.8417C98.7505 12.8075 97.5139 13.0945 96.4077 13.675L32.7577 51.15C31.7133 51.8476 30.8452 52.7783 30.2219 53.8687C29.5986 54.9591 29.2372 56.1794 29.166 57.4333V74.1C29.166 76.3917 30.7827 77.3083 32.7577 76.15L96.4077 38.7083C97.5139 38.1278 98.7505 37.8409 99.9994 37.875V12.8417Z" fill="#DFF9FF"/>
<path d="M99.9994 62.8417C98.7501 62.8034 97.5124 63.0906 96.4077 63.675L32.7577 101.15C31.7133 101.848 30.8452 102.778 30.2219 103.869C29.5986 104.959 29.2372 106.179 29.166 107.433V124.1C29.166 126.392 30.7827 127.308 32.7577 126.15L96.4077 88.7167C97.5085 88.1178 98.7464 87.8162 99.9994 87.8417V62.8417Z" fill="#DFF9FF"/>
<path d="M100.001 112.858C98.7545 112.824 97.5204 113.111 96.4174 113.692L31.2757 152.025C30.6272 152.407 30.0942 152.957 29.7333 153.617C29.3724 154.277 29.1969 155.023 29.2257 155.775C30.5674 192.133 61.7257 186.883 100.001 186.883V112.858Z" fill="#DFF9FF"/>
<path d="M100 186.892C138.258 186.892 169.433 192.142 170.833 155.783C170.862 155.031 170.687 154.286 170.326 153.625C169.965 152.965 169.432 152.415 168.783 152.033L103.642 113.7C102.529 113.133 101.299 112.837 100.05 112.837C98.8015 112.837 97.5707 113.133 96.4584 113.7L31.3167 152.033C30.6682 152.415 30.1352 152.965 29.7743 153.625C29.4134 154.286 29.238 155.031 29.2667 155.783C30.5667 192.142 61.7417 186.892 100 186.892Z" stroke="#00303E" stroke-linecap="round" stroke-linejoin="round"/>
<path d="M170.833 124.1C170.833 126.392 169.216 127.317 167.241 126.15L103.591 88.7167C102.48 88.1457 101.249 87.8478 99.9994 87.8478C98.7501 87.8478 97.5188 88.1457 96.4077 88.7167L32.7577 126.15C30.7827 127.308 29.166 126.392 29.166 124.1V107.433C29.2372 106.179 29.5986 104.959 30.2219 103.869C30.8452 102.778 31.7133 101.848 32.7577 101.15L96.4077 63.7167C97.5188 63.1457 98.7501 62.8478 99.9994 62.8478C101.249 62.8478 102.48 63.1457 103.591 63.7167L167.241 101.15C168.286 101.847 169.155 102.777 169.779 103.868C170.402 104.958 170.763 106.179 170.833 107.433V124.1Z" stroke="#00303E" stroke-linecap="round" stroke-linejoin="round"/>
<path d="M170.833 74.1C170.833 76.3917 169.216 77.3167 167.241 76.15L103.591 38.7083C102.48 38.1373 101.249 37.8395 99.9994 37.8395C98.7501 37.8395 97.5188 38.1373 96.4077 38.7083L32.7577 76.15C30.7827 77.3083 29.166 76.3917 29.166 74.1V57.4333C29.2372 56.1794 29.5986 54.9591 30.2219 53.8687C30.8452 52.7783 31.7133 51.8476 32.7577 51.15L96.4077 13.7083C97.5188 13.1373 98.7501 12.8395 99.9994 12.8395C101.249 12.8395 102.48 13.1373 103.591 13.7083L167.241 51.15C168.286 51.8467 169.155 52.7771 169.779 53.8677C170.402 54.9583 170.763 56.1791 170.833 57.4333V74.1Z" stroke="#00303E" stroke-linecap="round" stroke-linejoin="round"/>
</svg>
