<svg width="30" height="30" viewBox="0 0 30 30" fill="none" xmlns="http://www.w3.org/2000/svg">
<path d="M30.0002 15.3405C30.0002 14.3178 29.9149 13.2989 29.7366 12.2905H15.3022V18.0663H23.5686C23.2269 19.9297 22.1239 21.5782 20.5124 22.6228V26.3751H25.4475C28.3366 23.7692 30.0002 19.9078 30.0002 15.3405Z" fill="#4285F4"/>
<path d="M15.3022 30C19.4318 30 22.9113 28.6716 25.4475 26.3787L20.5124 22.6264C19.1384 23.54 17.3707 24.0604 15.3022 24.0604C11.3104 24.0604 7.92357 21.422 6.70934 17.8698H1.62939V21.7348C4.22872 26.8046 9.51677 30 15.3022 30Z" fill="#34A853"/>
<path d="M6.71296 17.8697C6.07065 16.0101 6.07065 13.9902 6.71296 12.127V8.26556H1.62943C-0.543142 12.5053 -0.543142 17.4985 1.62943 21.7385L6.71296 17.8697Z" fill="#FBBC04"/>
<path d="M15.3022 5.94016C17.4858 5.9074 19.5914 6.71184 21.1732 8.18942L25.5441 3.90939C22.7739 1.36199 19.105 -0.0392346 15.3022 0.000836336C9.51677 0.000836336 4.22512 3.19971 1.62939 8.26579L6.71293 12.1307C7.92357 8.57501 11.3104 5.94016 15.3022 5.94016Z" fill="#EA4335"/>
</svg>
