<svg width="20" height="20" viewBox="0 0 20 20" fill="none" xmlns="http://www.w3.org/2000/svg">
<path d="M16.8337 4.38239L11.667 1.27434C10.667 0.686326 9.41699 0.686326 8.41699 1.27434L3.16699 4.38239C2.25033 4.9704 1.66699 6.06242 1.66699 7.15444V12.7825C1.66699 13.8746 2.25033 14.9666 3.16699 15.5546L8.33366 18.7467C8.83366 19.0827 9.41699 19.1667 10.0003 19.1667C10.5837 19.1667 11.167 18.9987 11.667 18.7467L16.8337 15.6386C17.7503 15.0506 18.3337 14.0426 18.3337 12.8665V7.15444C18.3337 6.06242 17.7503 4.9704 16.8337 4.38239ZM10.0003 13.1186C8.33366 13.1186 6.91699 11.6905 6.91699 10.0105C6.91699 8.33046 8.25033 6.90244 10.0003 6.90244C11.7503 6.90244 13.0837 8.24646 13.0837 10.0105C13.0837 11.6905 11.667 13.1186 10.0003 13.1186Z" fill="#8A99E9"/>
</svg>
