<svg width="36" height="42" viewBox="0 0 36 42" fill="none" xmlns="http://www.w3.org/2000/svg">
<path d="M15.468 33.6985L35.28 22.022C35.604 21.8384 36 22.071 36 22.4504L36 30.8345C36 31.3118 35.748 31.7402 35.352 31.985L18.648 41.8256C18.252 42.0581 17.748 42.0581 17.352 41.8256L12.984 39.2553L12.984 39.243L7.584 36.0608L7.584 36.073L3.588 33.723C0.311999 31.7892 0.108004 26.9913 3.264 24.8616C3.336 24.8126 3.396 24.7759 3.468 24.7269L24.948 12.059C24.96 12.0468 24.984 12.0345 24.996 12.0223C27.516 10.5168 27.48 6.79601 24.948 5.30278L23.016 4.1645C22.932 5.87804 22.008 7.4447 20.532 8.30147L0.72 19.9658C0.395999 20.1493 -8.70591e-07 19.9168 -8.54006e-07 19.5374L-4.88061e-07 11.1655C-4.67195e-07 10.6882 0.251998 10.2598 0.647998 10.015L17.352 0.174413C17.748 -0.0581386 18.252 -0.0581386 18.648 0.174413L20.58 1.31269L30.42 7.102L32.52 8.35043C35.796 10.2843 35.952 15.1189 32.724 17.1629C32.664 17.1996 32.592 17.2486 32.532 17.2853L11.04 29.941C11.028 29.9532 11.004 29.9655 10.992 29.9777C8.484 31.4832 8.52 35.204 11.04 36.685L12.984 37.8355C13.08 36.1097 14.004 34.5553 15.468 33.6985Z" fill="white"/>
</svg>
