<svg width="334" height="270" viewBox="0 0 334 270" fill="none" xmlns="http://www.w3.org/2000/svg">
<mask id="path-1-inside-1_542_2058" fill="white">
<path d="M33.0757 83.5723C33.0757 78.0494 37.5528 73.5723 43.0757 73.5723H294.924C300.447 73.5723 304.924 78.0494 304.924 83.5723V185.787C304.924 191.31 300.447 195.787 294.924 195.787H43.0757C37.5528 195.787 33.0757 191.31 33.0757 185.787V83.5723Z"/>
</mask>
<path d="M33.0757 83.5723C33.0757 78.0494 37.5528 73.5723 43.0757 73.5723H294.924C300.447 73.5723 304.924 78.0494 304.924 83.5723V185.787C304.924 191.31 300.447 195.787 294.924 195.787H43.0757C37.5528 195.787 33.0757 191.31 33.0757 185.787V83.5723Z" fill="#081041"/>
<path d="M33.0757 83.5723C33.0757 77.4971 38.0006 72.5723 44.0757 72.5723H293.924C300 72.5723 304.924 77.4971 304.924 83.5723C304.924 78.6017 300.447 74.5723 294.924 74.5723H43.0757C37.5528 74.5723 33.0757 78.6017 33.0757 83.5723ZM304.924 195.787H33.0757H304.924ZM33.0757 195.787V73.5723V195.787ZM304.924 73.5723V195.787V73.5723Z" fill="#0064FB" mask="url(#path-1-inside-1_542_2058)"/>
<g filter="url(#filter0_d_542_2058)">
<path d="M38.5596 105.871L147.064 73.9671L251.651 73.9671L271.433 73.9637L299.736 169.82L211.426 195.786L84.9776 195.786L64.9977 195.786L38.5596 105.871Z" fill="#0064FB"/>
</g>
<rect x="49.6663" y="131.767" width="2.01034" height="18.7632" transform="rotate(-16.3851 49.6663 131.767)" fill="#1B266B"/>
<path d="M150.178 76.8931L152.106 76.326L187.232 195.787L185.452 195.786L185.136 195.786L150.178 76.8931Z" fill="#00FFE0"/>
<rect x="272.901" y="97.5601" width="2.01034" height="18.7632" transform="rotate(-16.3851 272.901 97.5601)" fill="#1B266B"/>
<circle cx="203.139" cy="87.1648" r="2.01034" transform="rotate(-16.3851 203.139 87.1648)" fill="#00FFE0"/>
<defs>
<filter id="filter0_d_542_2058" x="33.5596" y="67.9639" width="281.176" height="141.823" filterUnits="userSpaceOnUse" color-interpolation-filters="sRGB">
<feFlood flood-opacity="0" result="BackgroundImageFix"/>
<feColorMatrix in="SourceAlpha" type="matrix" values="0 0 0 0 0 0 0 0 0 0 0 0 0 0 0 0 0 0 127 0" result="hardAlpha"/>
<feOffset dx="5" dy="4"/>
<feGaussianBlur stdDeviation="5"/>
<feComposite in2="hardAlpha" operator="out"/>
<feColorMatrix type="matrix" values="0 0 0 0 0 0 0 0 0 0 0 0 0 0 0 0 0 0 0.25 0"/>
<feBlend mode="normal" in2="BackgroundImageFix" result="effect1_dropShadow_542_2058"/>
<feBlend mode="normal" in="SourceGraphic" in2="effect1_dropShadow_542_2058" result="shape"/>
</filter>
</defs>
</svg>
