<svg width="19" height="17" viewBox="0 0 19 17" fill="none" xmlns="http://www.w3.org/2000/svg">
<path d="M18.0403 14.5953L14.537 9.34534C14.1866 8.81144 14.1866 8.18856 14.537 7.65466L18.0403 2.40466C18.5658 1.60382 18.0403 0.625 17.1645 0.625L14.537 0.625C13.8363 0.625 13.2232 0.980933 12.8728 1.51483L9.01913 7.20975C8.49362 7.92161 8.49362 8.90043 9.01913 9.70127L12.7853 15.4852C13.1356 16.0191 13.8363 16.375 14.4494 16.375L17.0769 16.375C18.0403 16.375 18.5658 15.3072 18.0403 14.5953Z" fill="#8A99E9"/>
<path d="M10.1653 14.5953L6.66195 9.34534C6.31161 8.81144 6.31161 8.18856 6.66195 7.65466L10.1653 2.40466C10.6908 1.60382 10.1653 0.625 9.28949 0.625L6.66195 0.625C5.96128 0.625 5.34818 0.980933 4.99785 1.51483L1.14413 7.20975C0.618621 7.92161 0.618621 8.90043 1.14413 9.70127L4.91026 15.4852C5.2606 16.0191 5.87369 16.375 6.57437 16.375L9.2019 16.375C10.1653 16.375 10.6908 15.3072 10.1653 14.5953Z" fill="#8A99E9"/>
</svg>
