<svg width="15" height="19" viewBox="0 0 15 19" fill="none" xmlns="http://www.w3.org/2000/svg">
<path d="M9.2442 1.13609C8.30109 0.121469 6.73893 0.121467 5.79581 1.13608L1.18928 6.09182C0.924717 6.37643 0.746939 6.73624 0.678341 7.12592C0.118891 10.3039 0.0775954 13.5573 0.556188 16.7496L0.72563 17.8798C0.779149 18.2368 1.07431 18.5 1.42117 18.5H4.64001C4.90511 18.5 5.12001 18.2761 5.12001 18V11H9.92001V18C9.92001 18.2761 10.1349 18.5 10.4 18.5H13.6188C13.9657 18.5 14.2608 18.2368 14.3143 17.8798L14.4838 16.7496C14.9624 13.5573 14.9211 10.3039 14.3616 7.12591C14.293 6.73624 14.1153 6.37643 13.8507 6.09182L9.2442 1.13609Z" fill="white"/>
</svg>
