<svg width="128" height="34" viewBox="0 0 128 34" fill="none" xmlns="http://www.w3.org/2000/svg">
<path d="M10.2595 0.787999C12.6355 0.787999 14.6448 1.008 16.2875 1.448C17.9301 1.888 19.2355 2.73867 20.2035 4C21.2008 5.232 21.6995 7.00667 21.6995 9.324C21.6995 10.3507 21.5381 11.4067 21.2155 12.492C20.9221 13.548 20.5408 14.472 20.0715 15.264C19.6315 16.056 19.2355 16.5693 18.8835 16.804C18.4728 17.0973 17.5635 17.332 16.1555 17.508C14.7475 17.6547 13.0901 17.728 11.1835 17.728C10.5088 17.728 9.46745 17.6987 8.05945 17.64V26H0.139453V0.919998C3.21945 0.831999 6.59279 0.787999 10.2595 0.787999ZM13.5595 12.096C13.8528 11.7147 13.9995 10.952 13.9995 9.808C13.9995 8.312 13.6768 7.256 13.0315 6.64C12.4155 6.024 11.3301 5.716 9.77545 5.716C9.24745 5.716 8.67545 5.76 8.05945 5.848V12.536C8.35279 12.5653 8.92479 12.58 9.77545 12.58C12.0341 12.58 13.2955 12.4187 13.5595 12.096ZM60.1242 15.88V26H52.7762V0.919998H60.2122L66.8562 11.04C67.8535 12.536 68.6162 13.7973 69.1442 14.824H69.2762V10.6V0.919998H76.5802V26H69.1002L62.2802 15.44L60.3002 12.448H60.1682L60.1242 15.88ZM102.833 12.096V24.636C100.867 25.2813 99.0047 25.7507 97.2447 26.044C95.4847 26.3373 94.0034 26.484 92.8007 26.484C88.8114 26.484 85.6874 25.4427 83.4287 23.36C81.17 21.2773 80.0407 18.08 80.0407 13.768C80.0407 9.368 81.2287 6.08267 83.6047 3.912C85.9807 1.712 89.3247 0.611999 93.6367 0.611999C95.8954 0.611999 98.6087 0.949332 101.777 1.624C101.777 2.21067 101.718 3.09067 101.601 4.264C101.483 5.408 101.366 6.21467 101.249 6.684L99.6647 6.64C97.7287 6.58133 96.218 6.552 95.1327 6.552C91.8767 6.552 90.102 6.74267 89.8087 7.124C89.3394 7.68133 89.002 8.54667 88.7967 9.72C88.6207 10.8933 88.5327 12.0227 88.5327 13.108C88.5327 15.0733 88.7527 16.5987 89.1927 17.684C89.6327 18.7693 90.3074 19.532 91.2167 19.972C92.126 20.412 93.358 20.632 94.9127 20.632H95.0887V12.096H102.833ZM127.121 5.76L121.841 22.7C120.814 25.956 119.89 28.3173 119.069 29.784C118.248 31.28 117.426 32.3213 116.605 32.908C116.136 33.2307 115.388 33.48 114.361 33.656C113.364 33.832 112.278 33.92 111.105 33.92C109.345 33.92 107.937 33.7587 106.881 33.436C106.852 32.732 106.881 31.8667 106.969 30.84C107.057 29.8427 107.174 28.992 107.321 28.288C108.553 28.3467 109.756 28.376 110.929 28.376C111.809 28.376 112.469 28.3613 112.909 28.332C113.349 27.4813 113.76 26.5867 114.141 25.648L111.105 25.472L104.329 5.76H112.293L115.813 19.928L115.857 20.764H115.989L119.157 5.76H127.121Z" fill="white"/>
<path d="M36.7347 26.572C32.3641 26.572 29.0787 25.5453 26.8787 23.492C24.7081 21.4093 23.6227 18.08 23.6227 13.504C23.6227 9.016 24.8254 5.74533 27.2307 3.692C29.6361 1.63867 32.8187 0.611999 36.7787 0.611999C45.1094 0.611999 49.2747 4.76267 49.2747 13.064C49.2747 17.2587 48.2481 20.5587 46.1947 22.964C44.1707 25.3693 41.0174 26.572 36.7347 26.572ZM36.5587 21.38C37.3801 21.38 38.0694 21.248 38.6267 20.984C39.1841 20.6907 39.6241 20.192 39.9467 19.488C40.5627 18.2853 40.8707 16.32 40.8707 13.592C40.8707 10.9227 40.5627 8.98667 39.9467 7.784C39.3307 6.552 38.2014 5.90667 36.5587 5.848C35.9427 5.848 35.2974 5.92133 34.6227 6.068C33.9774 6.18533 33.5667 6.36133 33.3907 6.596C33.0387 7.00667 32.7601 7.88667 32.5547 9.236C32.3787 10.556 32.2907 12.008 32.2907 13.592C32.2907 16.056 32.5254 17.86 32.9947 19.004C33.3174 19.8547 33.7721 20.4707 34.3587 20.852C34.9454 21.204 35.6787 21.38 36.5587 21.38Z" fill="#0064FB"/>
</svg>
