<svg width="200" height="200" viewBox="0 0 200 200" fill="none" xmlns="http://www.w3.org/2000/svg">
<path d="M133.333 143.333V190C133.333 190.744 133.134 191.474 132.756 192.115C132.379 192.756 131.836 193.284 131.186 193.644C130.535 194.005 129.8 194.185 129.057 194.165C128.313 194.146 127.588 193.928 126.958 193.533L99.9993 176.667L73.041 193.525C72.4109 193.919 71.6869 194.137 70.9441 194.157C70.2013 194.177 69.4667 193.998 68.8164 193.638C68.1662 193.278 67.6239 192.752 67.2458 192.112C66.8677 191.472 66.6675 190.743 66.666 190V143.333" fill="#9FEAFF"/>
<path d="M133.333 143.333V190C133.333 190.744 133.134 191.474 132.756 192.115C132.379 192.756 131.836 193.284 131.186 193.644C130.535 194.005 129.8 194.185 129.057 194.165C128.313 194.146 127.588 193.928 126.958 193.533L99.9993 176.667L73.041 193.525C72.4109 193.919 71.6869 194.137 70.9441 194.157C70.2013 194.177 69.4667 193.998 68.8164 193.638C68.1662 193.278 67.6239 192.752 67.2458 192.112C66.8677 191.472 66.6675 190.743 66.666 190V143.333" stroke="#00303E" stroke-linecap="round" stroke-linejoin="round"/>
<path d="M166.667 72.5C166.668 67.7795 165.165 63.1814 162.377 59.3726C159.588 55.5637 155.659 52.742 151.159 51.3167C153.35 47.121 154.145 42.3354 153.428 37.6566C152.711 32.9778 150.52 28.6499 147.173 25.3028C143.826 21.9558 139.498 19.7643 134.819 19.0473C130.14 18.3304 125.355 19.1254 121.159 21.3167C119.731 16.8167 116.907 12.8881 113.097 10.1C109.287 7.31187 104.688 5.80898 99.9672 5.80898C95.246 5.80898 90.6473 7.31187 86.8373 10.1C83.0273 12.8881 80.2037 16.8167 78.7755 21.3167C74.5798 19.1254 69.7943 18.3304 65.1154 19.0473C60.4366 19.7643 56.1087 21.9558 52.7617 25.3028C49.4146 28.6499 47.2231 32.9778 46.5062 37.6566C45.7892 42.3354 46.5842 47.121 48.7755 51.3167C44.2743 52.7424 40.3442 55.5646 37.5548 59.3742C34.7654 63.1837 33.2617 67.7826 33.2617 72.5042C33.2617 77.2257 34.7654 81.8246 37.5548 85.6342C40.3442 89.4437 44.2743 92.2659 48.7755 93.6917C46.5842 97.8874 45.7892 102.673 46.5062 107.352C47.2231 112.031 49.4146 116.358 52.7617 119.706C56.1087 123.053 60.4366 125.244 65.1154 125.961C69.7943 126.678 74.5798 125.883 78.7755 123.692C80.2037 128.192 83.0273 132.12 86.8373 134.908C90.6473 137.696 95.246 139.199 99.9672 139.199C104.688 139.199 109.287 137.696 113.097 134.908C116.907 132.12 119.731 128.192 121.159 123.692C125.355 125.883 130.14 126.678 134.819 125.961C139.498 125.244 143.826 123.053 147.173 119.706C150.52 116.358 152.711 112.031 153.428 107.352C154.145 102.673 153.35 97.8874 151.159 93.6917C155.66 92.2647 159.589 89.4415 162.378 85.6312C165.166 81.8209 166.668 77.2216 166.667 72.5Z" fill="#9FEAFF"/>
<path d="M147.142 25.375C143.804 22.0359 139.489 19.8467 134.824 19.1245C130.158 18.4023 125.383 19.1847 121.192 21.3583C119.764 16.8583 116.94 12.9298 113.13 10.1416C109.32 7.35354 104.722 5.85065 100 5.85065C95.2792 5.85065 90.6805 7.35354 86.8705 10.1416C83.0605 12.9298 80.2369 16.8583 78.8087 21.3583C74.613 19.1671 69.8275 18.3721 65.1486 19.089C60.4698 19.806 56.1419 21.9974 52.7949 25.3445C49.4478 28.6915 47.2563 33.0194 46.5394 37.6983C45.8224 42.3771 46.6174 47.1626 48.8087 51.3583C44.3075 52.7841 40.3774 55.6063 37.588 59.4158C34.7986 63.2254 33.2949 67.8242 33.2949 72.5458C33.2949 77.2674 34.7986 81.8663 37.588 85.6758C40.3774 89.4854 44.3075 92.3076 48.8087 93.7333C46.6351 97.9246 45.8526 102.699 46.5748 107.365C47.297 112.031 49.4863 116.345 52.8254 119.683L147.142 25.375Z" fill="#DFF9FF"/>
<path d="M166.667 72.5C166.668 67.7795 165.165 63.1814 162.377 59.3726C159.588 55.5637 155.659 52.742 151.159 51.3167C153.35 47.121 154.145 42.3354 153.428 37.6566C152.711 32.9778 150.52 28.6499 147.173 25.3028C143.826 21.9558 139.498 19.7643 134.819 19.0473C130.14 18.3304 125.355 19.1254 121.159 21.3167C119.731 16.8167 116.907 12.8881 113.097 10.1C109.287 7.31187 104.688 5.80898 99.9672 5.80898C95.246 5.80898 90.6473 7.31187 86.8373 10.1C83.0273 12.8881 80.2037 16.8167 78.7755 21.3167C74.5798 19.1254 69.7943 18.3304 65.1154 19.0473C60.4366 19.7643 56.1087 21.9558 52.7617 25.3028C49.4146 28.6499 47.2231 32.9778 46.5062 37.6566C45.7892 42.3354 46.5842 47.121 48.7755 51.3167C44.2743 52.7424 40.3442 55.5646 37.5548 59.3742C34.7654 63.1837 33.2617 67.7826 33.2617 72.5042C33.2617 77.2257 34.7654 81.8246 37.5548 85.6342C40.3442 89.4437 44.2743 92.2659 48.7755 93.6917C46.5842 97.8874 45.7892 102.673 46.5062 107.352C47.2231 112.031 49.4146 116.358 52.7617 119.706C56.1087 123.053 60.4366 125.244 65.1154 125.961C69.7943 126.678 74.5798 125.883 78.7755 123.692C80.2037 128.192 83.0273 132.12 86.8373 134.908C90.6473 137.696 95.246 139.199 99.9672 139.199C104.688 139.199 109.287 137.696 113.097 134.908C116.907 132.12 119.731 128.192 121.159 123.692C125.355 125.883 130.14 126.678 134.819 125.961C139.498 125.244 143.826 123.053 147.173 119.706C150.52 116.358 152.711 112.031 153.428 107.352C154.145 102.673 153.35 97.8874 151.159 93.6917C155.66 92.2647 159.589 89.4415 162.378 85.6312C165.166 81.8209 166.668 77.2216 166.667 72.5Z" stroke="#00303E" stroke-linecap="round" stroke-linejoin="round"/>
<path d="M103.992 37.4L112.559 55.8333H129.225C130.067 55.7968 130.899 56.022 131.608 56.478C132.316 56.934 132.866 57.5984 133.181 58.3797C133.496 59.1609 133.562 60.0208 133.368 60.8407C133.175 61.6607 132.732 62.4005 132.1 62.9583L117.634 77.2167L125.65 95.625C126.001 96.4681 126.079 97.4 125.872 98.2895C125.666 99.1791 125.186 99.9816 124.5 100.584C123.814 101.187 122.956 101.559 122.047 101.648C121.138 101.738 120.224 101.54 119.434 101.083L100.067 90.1917L80.7002 101.083C79.9096 101.54 78.9956 101.738 78.0868 101.648C77.178 101.559 76.3202 101.187 75.634 100.584C74.9478 99.9816 74.4677 99.1791 74.2613 98.2895C74.055 97.4 74.1327 96.4681 74.4836 95.625L82.5002 77.2167L68.0336 62.9833C67.3929 62.4282 66.9413 61.6872 66.7416 60.8633C66.5419 60.0395 66.6042 59.1739 66.9196 58.387C67.2351 57.6002 67.7881 56.9314 68.5016 56.4737C69.2151 56.0159 70.0535 55.7921 70.9002 55.8333H87.5669L96.1419 37.375C96.5159 36.6557 97.0807 36.0533 97.7744 35.6336C98.468 35.214 99.2638 34.9934 100.075 34.996C100.885 34.9986 101.68 35.2242 102.371 35.6483C103.062 36.0723 103.622 36.6784 103.992 37.4Z" fill="white" stroke="#00303E" stroke-linecap="round" stroke-linejoin="round"/>
</svg>
