<svg width="200" height="200" viewBox="0 0 200 200" fill="none" xmlns="http://www.w3.org/2000/svg">
<path d="M43.75 112.45C43.75 126.816 49.4568 140.593 59.615 150.752C69.7733 160.91 83.5508 166.617 97.9167 166.617C112.283 166.617 126.06 160.91 136.218 150.752C146.377 140.593 152.083 126.816 152.083 112.45C152.083 98.0841 146.377 84.3066 136.218 74.1484C126.06 63.9902 112.283 58.2833 97.9167 58.2833C83.5508 58.2833 69.7733 63.9902 59.615 74.1484C49.4568 84.3066 43.75 98.0841 43.75 112.45Z" fill="#9FEAFF"/>
<path d="M97.916 58.2833C87.313 58.2745 76.941 61.3805 68.0881 67.2157C59.2353 73.051 52.2916 81.3583 48.1195 91.1059C43.9474 100.854 42.7306 111.612 44.6204 122.045C46.5102 132.479 51.4232 142.127 58.7493 149.792L135.266 73.275C125.216 63.6465 111.834 58.275 97.916 58.2833Z" fill="#DFF9FF"/>
<path d="M146.791 89.0667C150.738 97.3235 152.528 106.446 151.995 115.582C151.462 124.718 148.623 133.57 143.743 141.311C138.862 149.053 132.1 155.432 124.087 159.853C116.075 164.274 107.072 166.593 97.9206 166.593C88.769 166.593 79.7666 164.274 71.7537 159.853C63.7408 155.432 56.9787 149.053 52.0984 141.311C47.2182 133.57 44.379 124.718 43.8459 115.582C43.3128 106.446 45.1031 97.3235 49.0498 89.0667" stroke="#00303E" stroke-linecap="round" stroke-linejoin="round"/>
<path d="M136.217 150.833L181.217 195.833" stroke="#00303E" stroke-linecap="round" stroke-linejoin="round"/>
<path d="M141.075 68.525C140.654 70.3649 139.621 72.0074 138.145 73.1837C136.669 74.36 134.837 75.0004 132.95 75H62.8833C60.9982 75.0012 59.1684 74.3632 57.6926 73.1902C56.2169 72.0172 55.1825 70.3785 54.7583 68.5417L43.75 20.8333L72.9167 45.8333L97.9167 20.8333L122.917 45.8333L152.083 20.8333L141.075 68.525Z" fill="#9FEAFF" stroke="#00303E" stroke-linecap="round" stroke-linejoin="round"/>
<path d="M43.7493 20.8334C45.3975 20.8334 47.0087 20.3446 48.3791 19.4289C49.7495 18.5133 50.8176 17.2118 51.4483 15.6891C52.0791 14.1663 52.2441 12.4908 51.9226 10.8743C51.601 9.25776 50.8073 7.7729 49.6419 6.60747C48.4765 5.44203 46.9916 4.64836 45.3751 4.32681C43.7586 4.00527 42.083 4.1703 40.5603 4.80103C39.0376 5.43176 37.7361 6.49986 36.8204 7.87027C35.9048 9.24068 35.416 10.8518 35.416 12.5C35.416 14.7102 36.294 16.8298 37.8568 18.3926C39.4196 19.9554 41.5392 20.8334 43.7493 20.8334Z" fill="#9FEAFF" stroke="#00303E" stroke-linecap="round" stroke-linejoin="round"/>
<path d="M97.9173 20.8334C99.5655 20.8334 101.177 20.3446 102.547 19.4289C103.917 18.5133 104.986 17.2118 105.616 15.6891C106.247 14.1663 106.412 12.4908 106.091 10.8743C105.769 9.25776 104.975 7.7729 103.81 6.60747C102.644 5.44203 101.16 4.64836 99.5431 4.32681C97.9266 4.00527 96.251 4.1703 94.7283 4.80103C93.2056 5.43176 91.9041 6.49986 90.9884 7.87027C90.0727 9.24068 89.584 10.8518 89.584 12.5C89.584 14.7102 90.462 16.8298 92.0248 18.3926C93.5876 19.9554 95.7072 20.8334 97.9173 20.8334Z" fill="#9FEAFF" stroke="#00303E" stroke-linecap="round" stroke-linejoin="round"/>
<path d="M152.083 20.8334C153.732 20.8334 155.343 20.3446 156.713 19.4289C158.083 18.5133 159.152 17.2118 159.782 15.6891C160.413 14.1663 160.578 12.4908 160.257 10.8743C159.935 9.25776 159.141 7.7729 157.976 6.60747C156.81 5.44203 155.326 4.64836 153.709 4.32681C152.093 4.00527 150.417 4.1703 148.894 4.80103C147.372 5.43176 146.07 6.49986 145.154 7.87027C144.239 9.24068 143.75 10.8518 143.75 12.5C143.75 14.7102 144.628 16.8298 146.191 18.3926C147.754 19.9554 149.873 20.8334 152.083 20.8334Z" fill="#9FEAFF" stroke="#00303E" stroke-linecap="round" stroke-linejoin="round"/>
<path d="M22.916 162.5V195.833" stroke="#00303E" stroke-linecap="round" stroke-linejoin="round"/>
<path d="M39.5833 179.167H6.25" stroke="#00303E" stroke-linecap="round" stroke-linejoin="round"/>
<path d="M181.25 41.6667V66.6667" stroke="#00303E" stroke-linecap="round" stroke-linejoin="round"/>
<path d="M193.75 54.1667H168.75" stroke="#00303E" stroke-linecap="round" stroke-linejoin="round"/>
</svg>
