<svg width="200" height="200" viewBox="0 0 200 200" fill="none" xmlns="http://www.w3.org/2000/svg">
<path d="M170.833 75.1917C170.833 77.4833 169.216 78.4083 167.241 77.2417L103.591 39.8C102.48 39.229 101.249 38.9312 99.9994 38.9312C98.7501 38.9312 97.5188 39.229 96.4077 39.8L32.7577 77.2417C30.7827 78.4 29.166 77.4833 29.166 75.1917V58.525C29.2372 57.271 29.5986 56.0508 30.2219 54.9604C30.8452 53.87 31.7133 52.9393 32.7577 52.2417L96.4077 14.8C97.5188 14.229 98.7501 13.9312 99.9994 13.9312C101.249 13.9312 102.48 14.229 103.591 14.8L167.241 52.2417C168.286 52.9383 169.155 53.8688 169.779 54.9594C170.402 56.05 170.763 57.2707 170.833 58.525V75.1917Z" fill="#9FEAFF"/>
<path d="M99.9994 13.925C98.7501 13.8867 97.5124 14.1739 96.4077 14.7583L32.7577 52.2417C31.7133 52.9393 30.8452 53.87 30.2219 54.9604C29.5986 56.0508 29.2372 57.271 29.166 58.525V75.1917C29.166 77.4833 30.7827 78.4 32.7577 77.2417L96.4077 39.8C97.5124 39.2155 98.7501 38.9284 99.9994 38.9667V13.925Z" fill="#DFF9FF"/>
<path d="M170.833 129.35C170.833 131.642 169.216 132.567 167.241 131.4L103.591 93.9583C102.48 93.3873 101.249 93.0895 99.9994 93.0895C98.7501 93.0895 97.5188 93.3873 96.4077 93.9583L32.7577 131.4C30.7827 132.558 29.166 131.642 29.166 129.35V112.683C29.2372 111.429 29.5986 110.209 30.2219 109.119C30.8452 108.028 31.7133 107.098 32.7577 106.4L96.4077 68.9583C97.5188 68.3873 98.7501 68.0895 99.9994 68.0895C101.249 68.0895 102.48 68.3873 103.591 68.9583L167.241 106.4C168.286 107.097 169.155 108.027 169.779 109.118C170.402 110.208 170.763 111.429 170.833 112.683V129.35Z" fill="#9FEAFF"/>
<path d="M99.9994 68.0917C98.7505 68.0575 97.5139 68.3445 96.4077 68.925L32.7577 106.4C31.7133 107.098 30.8452 108.028 30.2219 109.119C29.5986 110.209 29.2372 111.429 29.166 112.683V129.35C29.166 131.642 30.7827 132.558 32.7577 131.4L96.4077 93.9583C97.5139 93.3778 98.7505 93.0909 99.9994 93.125V68.0917Z" fill="#DFF9FF"/>
<path d="M170.833 183.517C170.833 185.808 169.216 186.733 167.241 185.575L103.591 148.125C102.48 147.554 101.249 147.256 99.9994 147.256C98.7501 147.256 97.5188 147.554 96.4077 148.125L32.7577 185.575C30.7827 186.725 29.166 185.817 29.166 183.517V166.85C29.2371 165.597 29.5987 164.378 30.222 163.289C30.8454 162.2 31.7135 161.271 32.7577 160.575L96.4077 123.125C97.5188 122.554 98.7501 122.256 99.9994 122.256C101.249 122.256 102.48 122.554 103.591 123.125L167.241 160.575C168.286 161.27 169.154 162.199 169.778 163.289C170.401 164.378 170.762 165.597 170.833 166.85V183.517Z" fill="#9FEAFF"/>
<path d="M99.9994 122.258C98.7505 122.224 97.5139 122.511 96.4077 123.092L32.7577 160.575C31.7135 161.271 30.8454 162.2 30.222 163.289C29.5987 164.378 29.2371 165.597 29.166 166.85V183.517C29.166 185.817 30.7827 186.725 32.7577 185.575L96.4077 148.125C97.5139 147.544 98.7505 147.258 99.9994 147.292V122.258Z" fill="#DFF9FF"/>
<path d="M170.833 183.517C170.833 185.808 169.216 186.733 167.241 185.575L103.591 148.133C102.48 147.562 101.249 147.265 99.9994 147.265C98.7501 147.265 97.5188 147.562 96.4077 148.133L32.7577 185.575C30.7827 186.733 29.166 185.808 29.166 183.517V166.85C29.2365 165.597 29.5978 164.378 30.2212 163.289C30.8446 162.199 31.713 161.27 32.7577 160.575L96.4077 123.133C97.5188 122.562 98.7501 122.265 99.9994 122.265C101.249 122.265 102.48 122.562 103.591 123.133L167.241 160.575C168.285 161.271 169.153 162.2 169.777 163.289C170.4 164.378 170.762 165.597 170.833 166.85V183.517Z" stroke="#00303E" stroke-linecap="round" stroke-linejoin="round"/>
<path d="M170.833 129.35C170.833 131.642 169.216 132.567 167.241 131.408L103.591 93.9667C102.48 93.3957 101.249 93.0978 99.9994 93.0978C98.7501 93.0978 97.5188 93.3957 96.4077 93.9667L32.7577 131.408C30.7827 132.567 29.166 131.642 29.166 129.35V112.683C29.2365 111.43 29.5978 110.211 30.2212 109.122C30.8446 108.033 31.713 107.104 32.7577 106.408L96.4077 68.9667C97.5188 68.3957 98.7501 68.0978 99.9994 68.0978C101.249 68.0978 102.48 68.3957 103.591 68.9667L167.241 106.408C168.285 107.104 169.153 108.033 169.777 109.122C170.4 110.211 170.762 111.431 170.833 112.683V129.35Z" stroke="#00303E" stroke-linecap="round" stroke-linejoin="round"/>
<path d="M170.833 75.1833C170.833 77.475 169.216 78.4 167.241 77.2417L103.591 39.8C102.48 39.229 101.249 38.9312 99.9994 38.9312C98.7501 38.9312 97.5188 39.229 96.4077 39.8L32.7577 77.2417C30.7827 78.4 29.166 77.475 29.166 75.1833V58.5167C29.2365 57.2637 29.5978 56.0444 30.2212 54.9552C30.8446 53.8661 31.713 52.937 32.7577 52.2417L96.4077 14.8C97.5188 14.229 98.7501 13.9312 99.9994 13.9312C101.249 13.9312 102.48 14.229 103.591 14.8L167.241 52.2417C168.285 52.9375 169.153 53.8666 169.777 54.9557C170.4 56.0448 170.762 57.2639 170.833 58.5167V75.1833Z" stroke="#00303E" stroke-linecap="round" stroke-linejoin="round"/>
</svg>
