<svg width="22" height="22" viewBox="0 0 22 22" fill="none" xmlns="http://www.w3.org/2000/svg">
<path d="M0 11C0 17.0751 4.92487 22 11 22C17.0751 22 22 17.0751 22 11C22 4.92487 17.0751 0 11 0C4.92487 0 0 4.92487 0 11Z" fill="#081041"/>
<path fill-rule="evenodd" clip-rule="evenodd" d="M10.031 4.9C10.031 4.40294 10.4339 4 10.931 4C11.428 4 11.831 4.40294 11.831 4.9V10.0321H16.9617C17.4588 10.0321 17.8617 10.435 17.8617 10.9321C17.8617 11.4291 17.4588 11.8321 16.9617 11.8321H11.831V16.9617C11.831 17.4588 11.428 17.8617 10.931 17.8617C10.4339 17.8617 10.031 17.4588 10.031 16.9617V11.8321H4.89995C4.40289 11.8321 3.99995 11.4291 3.99995 10.9321C3.99995 10.435 4.40289 10.0321 4.89995 10.0321H10.031V4.9Z" fill="#0064FB"/>
</svg>
