<svg width="25" height="25" viewBox="0 0 25 25" fill="none" xmlns="http://www.w3.org/2000/svg">
<g clip-path="url(#clip0_1743_2345)">
<rect width="25" height="25" fill="#1B266B"/>
<rect width="25" height="25" fill="#1B266B"/>
<path d="M15.2819 14.2506C14.9166 14.2506 14.5944 14.3027 14.2896 14.3791C14.3927 14.4666 14.5063 14.5406 14.6037 14.6361C14.936 14.962 15.2105 15.3148 15.4318 15.6642C15.5668 15.8773 15.6567 16.044 15.7031 16.1497L15.7388 16.2353V17.7631H18.9372V16.5566C18.9372 16.5566 17.9126 14.2506 15.2819 14.2506Z" fill="white"/>
<path d="M8.1134 10.087C8.1134 8.87623 9.0949 7.89471 10.3056 7.89471C11.5164 7.89471 12.4979 8.87623 12.4979 10.087C12.4979 11.2977 11.5164 12.2792 10.3056 12.2792C9.0949 12.2792 8.1134 11.2977 8.1134 10.087Z" fill="white"/>
<path d="M14.69 16.3349C14.69 16.3349 13.4843 13.5946 10.3055 13.5946C7.12675 13.5946 5.92102 16.3349 5.92102 16.3349V17.7599H14.69V16.3349Z" fill="white"/>
<path d="M13.4581 11.5485C13.4581 10.5395 14.276 9.72162 15.285 9.72162C16.294 9.72162 17.1119 10.5395 17.1119 11.5485C17.1119 12.5575 16.294 13.3754 15.285 13.3754C14.276 13.3754 13.4581 12.5575 13.4581 11.5485Z" fill="white"/>
</g>
<defs>
<clipPath id="clip0_1743_2345">
<rect width="25" height="25" fill="white"/>
</clipPath>
</defs>
</svg>
