<svg width="30" height="16" viewBox="0 0 30 16" fill="none" xmlns="http://www.w3.org/2000/svg">
<path d="M16.9499 6.19772L18.0898 10L15.0004 7.68226L11.9102 9.99669L13.0501 6.19441L10 3.81964L13.7945 3.7841L14.9996 0L16.2055 3.7874L20 3.82295L16.9499 6.19772Z" fill="#00FFE0"/>
<path d="M4.86495 13.3384L5.66284 16L3.50028 14.3776L1.33716 15.9977L2.13505 13.3361L0 11.6737L2.65616 11.6489L3.49973 9L4.34384 11.6512L7 11.6761L4.86495 13.3384Z" fill="#00FFE0"/>
<path d="M27.8649 13.3384L28.6628 16L26.5003 14.3776L24.3372 15.9977L25.1351 13.3361L23 11.6737L25.6562 11.6489L26.4997 9L27.3438 11.6512L30 11.6761L27.8649 13.3384Z" fill="#00FFE0"/>
</svg>
