<svg width="24" height="24" viewBox="0 0 24 24" fill="none" xmlns="http://www.w3.org/2000/svg">
<path fill-rule="evenodd" clip-rule="evenodd" d="M11.9571 4C8.60313 4 5.94808 6.59741 5.94808 9.67742V12.9677C5.94808 13.1664 5.88892 13.3605 5.77816 13.5254L4.15287 15.9447L4.1421 15.9604C3.95508 16.2277 3.97557 16.4717 4.07209 16.6472C4.1724 16.8297 4.39168 17 4.74491 17H19.271C19.5256 17 19.7723 16.8485 19.91 16.6032C20.0415 16.3689 20.0218 16.1557 19.8982 15.9939C19.8917 15.9854 19.8854 15.9768 19.8792 15.9681L18.1523 13.5487C18.0313 13.3792 17.9662 13.176 17.9662 12.9677V9.67742C17.9662 8.1318 17.2811 6.65441 16.259 5.67311C15.0973 4.65717 13.6046 4 11.9571 4ZM3.94808 9.67742C3.94808 5.40259 7.59102 2 11.9571 2C14.1626 2 16.1177 2.88547 17.595 4.18455C17.6049 4.19332 17.6147 4.20229 17.6244 4.21146C19.0323 5.55281 19.9662 7.55277 19.9662 9.67742V12.6475L21.4988 14.7946C22.1763 15.6945 22.1041 16.7805 21.6539 17.5823C21.2076 18.3773 20.3369 19 19.271 19H4.74491C2.58273 19 1.19404 16.698 2.49752 14.8223L3.94808 12.663V9.67742ZM7.99995 21C7.99995 20.4477 8.44767 20 8.99995 20H15C15.5522 20 16 20.4477 16 21C16 21.5523 15.5522 22 15 22H8.99995C8.44767 22 7.99995 21.5523 7.99995 21Z" fill="white"/>
</svg>
