<svg width="24" height="24" viewBox="0 0 24 24" fill="none" xmlns="http://www.w3.org/2000/svg">
<path fill-rule="evenodd" clip-rule="evenodd" d="M11.9999 2.25C12.4141 2.25 12.7499 2.58579 12.7499 3V4.7369C14.1813 4.75655 15.6121 4.83247 17.0391 4.96464L17.3707 4.99536C19.6354 5.20514 21.3793 7.0858 21.4178 9.3599L21.4299 10.0734C21.477 12.8482 21.2533 15.621 20.7621 18.3524C20.5386 19.5955 19.4569 20.5 18.1939 20.5H17.9728C16.8363 20.5 15.8066 19.8302 15.3458 18.7914L14.2852 16.4001C13.4062 14.4182 10.5936 14.4182 9.71459 16.4001L8.65399 18.7914C8.19321 19.8302 7.16348 20.5 6.02699 20.5H5.80594C4.54294 20.5 3.46123 19.5955 3.23769 18.3524C2.74649 15.621 2.52282 12.8482 2.56985 10.0734L2.58194 9.3599C2.62048 7.0858 4.3644 5.20514 6.62913 4.99536L6.96073 4.96464C8.38766 4.83247 9.81848 4.75655 11.2499 4.7369V3C11.2499 2.58579 11.5857 2.25 11.9999 2.25ZM16.9999 8C16.9999 7.44772 16.5522 7 15.9999 7C15.4476 7 14.9999 7.44772 14.9999 8V8.25C14.9999 8.80228 15.4476 9.25 15.9999 9.25C16.5522 9.25 16.9999 8.80228 16.9999 8.25V8ZM7.99989 7.25C8.41411 7.25 8.74989 7.58579 8.74989 8V9.25H9.99989C10.4141 9.25 10.7499 9.58579 10.7499 10C10.7499 10.4142 10.4141 10.75 9.99989 10.75H8.74989V12C8.74989 12.4142 8.41411 12.75 7.99989 12.75C7.58568 12.75 7.24989 12.4142 7.24989 12V10.75H5.99989C5.58568 10.75 5.24989 10.4142 5.24989 10C5.24989 9.58579 5.58568 9.25 5.99989 9.25L7.24989 9.25V8C7.24989 7.58579 7.58568 7.25 7.99989 7.25ZM15.9999 10.75C16.5522 10.75 16.9999 11.1977 16.9999 11.75V12C16.9999 12.5523 16.5522 13 15.9999 13C15.4476 13 14.9999 12.5523 14.9999 12V11.75C14.9999 11.1977 15.4476 10.75 15.9999 10.75ZM17.9999 11C18.5522 11 18.9999 10.5523 18.9999 10C18.9999 9.44772 18.5522 9 17.9999 9H17.7499C17.1976 9 16.7499 9.44771 16.7499 10C16.7499 10.5523 17.1976 11 17.7499 11H17.9999ZM15.2499 10C15.2499 10.5523 14.8022 11 14.2499 11H13.9999C13.4476 11 12.9999 10.5523 12.9999 10C12.9999 9.44771 13.4476 9 13.9999 9H14.2499C14.8022 9 15.2499 9.44772 15.2499 10Z" fill="white"/>
</svg>
