<svg width="20" height="19" viewBox="0 0 20 19" fill="none" xmlns="http://www.w3.org/2000/svg">
<path fill-rule="evenodd" clip-rule="evenodd" d="M10 0.25C10.4142 0.25 10.75 0.585786 10.75 1V2.7369C12.1814 2.75655 13.6123 2.83247 15.0392 2.96464L15.3708 2.99536C17.6355 3.20514 19.3794 5.0858 19.418 7.3599L19.4301 8.07336C19.4771 10.8482 19.2534 13.621 18.7622 16.3524C18.5387 17.5955 17.457 18.5 16.194 18.5H15.9729C14.8364 18.5 13.8067 17.8302 13.3459 16.7914L12.2853 14.4001C11.4063 12.4182 8.59373 12.4182 7.71471 14.4001L6.65411 16.7914C6.19334 17.8302 5.1636 18.5 4.02711 18.5H3.80606C2.54306 18.5 1.46135 17.5955 1.23781 16.3524C0.746615 13.621 0.522944 10.8482 0.569973 8.07336L0.582065 7.3599C0.620607 5.0858 2.36452 3.20514 4.62925 2.99536L4.96085 2.96464C6.38778 2.83247 7.81861 2.75655 9.25002 2.7369V1C9.25002 0.585786 9.5858 0.25 10 0.25ZM15 6C15 5.44772 14.5523 5 14 5C13.4477 5 13 5.44772 13 6V6.25C13 6.80228 13.4477 7.25 14 7.25C14.5523 7.25 15 6.80228 15 6.25V6ZM6.00002 5.25C6.41423 5.25 6.75002 5.58579 6.75002 6V7.25H8.00002C8.41423 7.25 8.75002 7.58579 8.75002 8C8.75002 8.41421 8.41423 8.75 8.00002 8.75H6.75002V10C6.75002 10.4142 6.41423 10.75 6.00002 10.75C5.5858 10.75 5.25002 10.4142 5.25002 10V8.75H4.00002C3.5858 8.75 3.25002 8.41421 3.25002 8C3.25002 7.58579 3.5858 7.25 4.00002 7.25L5.25002 7.25V6C5.25002 5.58579 5.5858 5.25 6.00002 5.25ZM14 8.75C14.5523 8.75 15 9.19772 15 9.75V10C15 10.5523 14.5523 11 14 11C13.4477 11 13 10.5523 13 10V9.75C13 9.19771 13.4477 8.75 14 8.75ZM16 9C16.5523 9 17 8.55228 17 8C17 7.44772 16.5523 7 16 7H15.75C15.1977 7 14.75 7.44771 14.75 8C14.75 8.55228 15.1977 9 15.75 9H16ZM13.25 8C13.25 8.55228 12.8023 9 12.25 9H12C11.4477 9 11 8.55228 11 8C11 7.44771 11.4477 7 12 7H12.25C12.8023 7 13.25 7.44772 13.25 8Z" fill="white"/>
</svg>
