<svg width="20" height="20" viewBox="0 0 20 20" fill="none" xmlns="http://www.w3.org/2000/svg">
<path d="M7.70829 2.5C7.70829 2.15482 7.98811 1.875 8.33329 1.875H11.6666C12.0118 1.875 12.2916 2.15482 12.2916 2.5V3.125H15.8333C16.1785 3.125 16.4583 3.40482 16.4583 3.75C16.4583 4.09518 16.1785 4.375 15.8333 4.375H4.16663C3.82145 4.375 3.54163 4.09518 3.54163 3.75C3.54163 3.40482 3.82145 3.125 4.16663 3.125H7.70829V2.5Z" fill="white"/>
<path fill-rule="evenodd" clip-rule="evenodd" d="M5.19987 6.62065C5.22332 6.40964 5.40168 6.25 5.61399 6.25H14.3859C14.5982 6.25 14.7766 6.40964 14.8 6.62065L14.9668 8.12178C15.2675 10.8276 15.2675 13.5584 14.9668 16.2642L14.9504 16.412C14.8409 17.3975 14.0771 18.1833 13.0952 18.3207C11.0417 18.6082 8.9582 18.6082 6.90474 18.3207C5.92277 18.1833 5.159 17.3975 5.0495 16.412L5.03308 16.2642C4.73244 13.5584 4.73244 10.8276 5.03308 8.12177L5.19987 6.62065ZM8.95829 9.49999C8.95829 9.15482 8.67847 8.87499 8.33329 8.87499C7.98812 8.87499 7.70829 9.15482 7.70829 9.49999L7.70829 15.3333C7.70829 15.6785 7.98811 15.9583 8.33329 15.9583C8.67847 15.9583 8.95829 15.6785 8.95829 15.3333L8.95829 9.49999ZM12.2916 9.49999C12.2916 9.15482 12.0118 8.87499 11.6666 8.87499C11.3214 8.87499 11.0416 9.15482 11.0416 9.49999V15.3333C11.0416 15.6785 11.3214 15.9583 11.6666 15.9583C12.0118 15.9583 12.2916 15.6785 12.2916 15.3333V9.49999Z" fill="white"/>
</svg>
