<svg width="13" height="13" viewBox="0 0 13 13" fill="none" xmlns="http://www.w3.org/2000/svg">
<path d="M5.95829 2.03125C4.83646 2.03125 3.92704 2.94067 3.92704 4.0625C3.92704 5.18433 4.83646 6.09375 5.95829 6.09375C7.08012 6.09375 7.98954 5.18433 7.98954 4.0625C7.98954 2.94067 7.08012 2.03125 5.95829 2.03125Z" fill="#8A99E9"/>
<path d="M3.79163 7.17708C2.6698 7.17708 1.76038 8.08651 1.76038 9.20833V9.85199C1.76038 10.26 2.05606 10.6079 2.45873 10.6736C4.77643 11.052 7.14016 11.052 9.45785 10.6736C9.86052 10.6079 10.1562 10.26 10.1562 9.85199V9.20833C10.1562 8.08651 9.24679 7.17708 8.12496 7.17708H7.94032C7.84039 7.17708 7.74108 7.19289 7.64609 7.22391L7.17727 7.37699C6.3852 7.63563 5.53139 7.63563 4.73932 7.37699L4.2705 7.22391C4.1755 7.19289 4.0762 7.17708 3.97626 7.17708H3.79163Z" fill="#8A99E9"/>
<path d="M10.5625 3.38542C10.7868 3.38542 10.9687 3.5673 10.9687 3.79167V4.73958H11.9166C12.141 4.73958 12.3229 4.92147 12.3229 5.14583C12.3229 5.3702 12.141 5.55208 11.9166 5.55208H10.9687V6.5C10.9687 6.72437 10.7868 6.90625 10.5625 6.90625C10.3381 6.90625 10.1562 6.72437 10.1562 6.5V5.55208H9.20829C8.98393 5.55208 8.80204 5.3702 8.80204 5.14583C8.80204 4.92147 8.98393 4.73958 9.20829 4.73958H10.1562V3.79167C10.1562 3.5673 10.3381 3.38542 10.5625 3.38542Z" fill="#8A99E9"/>
</svg>
