<svg width="11" height="11" viewBox="0 0 11 11" fill="none" xmlns="http://www.w3.org/2000/svg">
<path fill-rule="evenodd" clip-rule="evenodd" d="M3.36624 1.8413C4.77291 1.68408 6.22709 1.68408 7.63377 1.8413C8.41876 1.92904 9.05207 2.54752 9.14424 3.33561C9.31244 4.77369 9.31244 6.22647 9.14424 7.66455C9.05207 8.45265 8.41876 9.07113 7.63377 9.15886C6.22709 9.31608 4.77291 9.31608 3.36624 9.15886C2.58124 9.07113 1.94794 8.45265 1.85576 7.66455C1.68757 6.22647 1.68757 4.77369 1.85576 3.33561C1.94794 2.54752 2.58124 1.92904 3.36624 1.8413ZM3.88194 3.88201C4.01618 3.74777 4.23384 3.74777 4.36808 3.88201L5.50001 5.01395L6.63195 3.88201C6.76619 3.74777 6.98384 3.74777 7.11808 3.88201C7.25233 4.01626 7.25233 4.23391 7.11808 4.36815L5.98615 5.50008L7.11808 6.63201C7.25232 6.76625 7.25232 6.9839 7.11808 7.11815C6.98384 7.25239 6.76618 7.25239 6.63194 7.11815L5.50001 5.98622L4.36808 7.11815C4.23384 7.25239 4.01619 7.25239 3.88195 7.11815C3.7477 6.98391 3.7477 6.76626 3.88195 6.63201L5.01388 5.50008L3.88194 4.36815C3.7477 4.2339 3.7477 4.01625 3.88194 3.88201Z" fill="#FF0000"/>
</svg>
