<svg width="20" height="20" viewBox="0 0 20 20" fill="none" xmlns="http://www.w3.org/2000/svg">
<path d="M9.37496 15.8334C9.37496 15.4882 9.65479 15.2084 9.99996 15.2084H15C15.115 15.2084 15.2083 15.1151 15.2083 15.0001L15.2083 5.00008C15.2083 4.88502 15.115 4.79175 15 4.79175L9.99996 4.79175C9.65479 4.79175 9.37496 4.51193 9.37496 4.16675C9.37496 3.82157 9.65479 3.54175 9.99996 3.54175H15C15.8054 3.54175 16.4583 4.19467 16.4583 5.00008V15.0001C16.4583 15.8055 15.8054 16.4584 15 16.4584H9.99996C9.65479 16.4584 9.37496 16.1786 9.37496 15.8334Z" fill="#FF0000"/>
<path d="M13.0096 10.9294C13.0096 11.3897 12.6365 11.7628 12.1763 11.7628H8.12965C8.11054 12.059 8.08662 12.3549 8.05788 12.6505L8.03317 12.9048C7.99297 13.3184 7.55384 13.566 7.17916 13.3865C5.6559 12.6565 4.27691 11.6575 3.10853 10.4376L3.08356 10.4115C2.86098 10.1791 2.86098 9.81263 3.08356 9.58024L3.10853 9.55417C4.27691 8.33428 5.6559 7.3353 7.17916 6.60529C7.55384 6.42572 7.99297 6.67338 8.03317 7.08692L8.05788 7.34125C8.08662 7.63686 8.11054 7.93281 8.12965 8.229H12.1763C12.6365 8.229 13.0096 8.6021 13.0096 9.06234V10.9294Z" fill="#FF0000"/>
</svg>
