<svg width="22" height="22" viewBox="0 0 22 22" fill="none" xmlns="http://www.w3.org/2000/svg">
<path d="M0 11C0 17.0751 4.92487 22 11 22C17.0751 22 22 17.0751 22 11C22 4.92487 17.0751 0 11 0C4.92487 0 0 4.92487 0 11Z" fill="#0064FB"/>
<path fill-rule="evenodd" clip-rule="evenodd" d="M9.23442 8.17117C9.23442 7.00631 9.99618 6 11.0003 6C12.0043 6 12.7661 7.00631 12.7661 8.17117C12.7661 9.33603 12.0043 10.3423 11.0003 10.3423C9.99618 10.3423 9.23442 9.33603 9.23442 8.17117ZM8.27263 12.2968C8.86321 11.6947 9.73539 11.231 11.0003 11.231C12.2652 11.231 13.1373 11.6947 13.7279 12.2968C14.312 12.8923 14.6009 13.6025 14.7385 14.0696C14.8875 14.5755 14.5245 15.0001 14.1194 15.0001H7.88119C7.47609 15.0001 7.11303 14.5755 7.26206 14.0696C7.39966 13.6025 7.68851 12.8923 8.27263 12.2968ZM14.6843 7.50478C13.955 7.50478 13.4266 8.24587 13.4266 9.06687C13.4266 9.88788 13.955 10.629 14.6843 10.629C15.4137 10.629 15.942 9.88788 15.942 9.06687C15.942 8.24587 15.4137 7.50478 14.6843 7.50478ZM8.08684 11.5726C7.88866 11.751 7.71064 11.9441 7.55104 12.146C7.25896 12.5154 7.03049 12.9113 6.85224 13.2946C6.70551 13.6101 6.64719 14.0429 6.62414 14.355H5.56943C5.25154 14.355 4.95466 14.0536 5.00576 13.6431C5.04814 13.3027 5.16148 12.7443 5.47595 12.2637C5.80189 11.7656 6.3303 11.3741 7.14269 11.3741C7.51096 11.3741 7.82332 11.4479 8.08684 11.5726ZM15.3769 14.355H16.4314C16.7489 14.355 17.0475 14.0533 16.9936 13.6409C16.9489 13.2986 16.8293 12.7386 16.4988 12.2574C16.1569 11.7597 15.6072 11.3741 14.7652 11.3741C14.4284 11.3741 14.1404 11.4414 13.8954 11.5557C14.1011 11.7388 14.2854 11.9378 14.45 12.146C14.7421 12.5154 14.9705 12.9113 15.1488 13.2946C15.2955 13.6101 15.3538 14.0429 15.3769 14.355ZM6.05847 9.06687C6.05847 8.24587 6.58681 7.50478 7.31615 7.50478C8.04549 7.50478 8.57383 8.24587 8.57383 9.06687C8.57383 9.88788 8.04549 10.629 7.31615 10.629C6.58681 10.629 6.05847 9.88788 6.05847 9.06687Z" fill="#081041"/>
</svg>
