<svg width="24" height="24" viewBox="0 0 24 24" fill="none" xmlns="http://www.w3.org/2000/svg">
<path d="M8.79995 9.8001H15.1C15.7 9.8001 16.1 9.4001 16.1 8.8001C16.1 6.5001 14.2 4.6001 11.9 4.6001C9.59995 4.6001 7.69995 6.5001 7.69995 8.8001C7.79995 9.3001 8.29995 9.8001 8.79995 9.8001Z" fill="#8A99E9"/>
<path d="M22 15.5C21.4 15.5 21 15.9 21 16.5V18.3C21 19.8 19.8 20.9 18.4 20.9H16.6C16 20.9 15.6 21.3 15.6 21.9C15.6 22.5 16 22.9 16.6 22.9H18.4C21 22.9 23 20.8 23 18.3V16.5C23 16 22.6 15.5 22 15.5Z" fill="#8A99E9"/>
<path d="M7.5 21.0001H5.6C4.2 21.0001 3 19.8001 3 18.4001V16.6001C3 16.0001 2.6 15.6001 2 15.6001C1.4 15.6001 1 16.0001 1 16.6001V18.4001C1 20.9001 3.1 23.0001 5.6 23.0001H7.4C8 23.0001 8.4 22.6001 8.4 22.0001C8.4 21.4001 8 21.0001 7.5 21.0001Z" fill="#8A99E9"/>
<path d="M2 8.5C2.6 8.5 3 8.1 3 7.5V5.6C3 4.2 4.2 3 5.6 3H7.4C8 3 8.4 2.6 8.4 2C8.4 1.4 8 1 7.5 1H5.6C3.1 1 1 3.1 1 5.6V7.4C1 8 1.4 8.5 2 8.5Z" fill="#8A99E9"/>
<path d="M18.4 1H16.6C16 1 15.6 1.4 15.6 2C15.6 2.6 16 3 16.6 3H18.4C19.8 3 21 4.2 21 5.6V7.4C21 8 21.4 8.4 22 8.4C22.6 8.4 23 8 23 7.4V5.6C23 3.1 20.9 1 18.4 1Z" fill="#8A99E9"/>
<path d="M22 11H2C1.4 11 1 11.4 1 12C1 12.6 1.4 13 2 13H7.1C6.5 13.6 6 14.3 5.7 15.1C5.4 15.9 5.5 16.8 5.9 17.5C6.4 18.2 7.2 18.7 8.1 18.7H15.7C16.6 18.7 17.4 18.3 17.9 17.5C18.4 16.8 18.5 15.9 18.1 15.1C17.8 14.3 17.3 13.6 16.7 13H22C22.6 13 23 12.6 23 12C23 11.4 22.6 11 22 11Z" fill="#8A99E9"/>
</svg>
