<svg width="24" height="24" viewBox="0 0 24 24" fill="none" xmlns="http://www.w3.org/2000/svg">
<path fill-rule="evenodd" clip-rule="evenodd" d="M4.46967 4.46967C4.76256 4.17678 5.23744 4.17678 5.53033 4.46967L19.5303 18.4697C19.8232 18.7626 19.8232 19.2374 19.5303 19.5303C19.2374 19.8232 18.7626 19.8232 18.4697 19.5303L4.46967 5.53033C4.17678 5.23744 4.17678 4.76256 4.46967 4.46967Z" fill="#8A99E9"/>
<path d="M3.80029 3.76367L20.1991 20.1625" stroke="#8A99E9" stroke-width="1.5" stroke-linecap="round"/>
<circle cx="12" cy="12" r="3.23684" stroke="#8A99E9" stroke-width="1.5"/>
<path d="M20.5948 13.6334C18.6466 15.6502 15.4806 18.1833 12.0001 18.1833C8.51969 18.1833 5.35373 15.6502 3.40545 13.6334C2.5068 12.7031 2.5068 11.2972 3.40545 10.3669C5.35373 8.35 8.51969 5.81689 12.0001 5.81689C15.4806 5.81689 18.6466 8.35 20.5948 10.3669C21.4935 11.2972 21.4935 12.7031 20.5948 13.6334Z" stroke="#8A99E9" stroke-width="1.5"/>
</svg>
