<svg width="20" height="20" viewBox="0 0 20 20" fill="none" xmlns="http://www.w3.org/2000/svg">
<path d="M2.5 15.8335V16.3335C2.5 17.4381 3.39543 18.3335 4.5 18.3335H15.5C16.6046 18.3335 17.5 17.4381 17.5 16.3335V15.8335C17.5 13.0721 15.2614 10.8335 12.5 10.8335H7.5C4.73858 10.8335 2.5 13.0721 2.5 15.8335Z" fill="#8A99E9"/>
<circle cx="9.5" cy="5.5" r="3.5" fill="#8A99E9"/>
<path d="M7.60968 3.1046C7.47021 2.96513 7.24408 2.96513 7.1046 3.1046C6.96513 3.24408 6.96513 3.47021 7.1046 3.60968L8.99492 5.5L7.10461 7.39032C6.96514 7.52979 6.96514 7.75592 7.10461 7.89539C7.24409 8.03486 7.47022 8.03486 7.60969 7.89539L9.5 6.00508L11.3903 7.89539C11.5298 8.03487 11.7559 8.03487 11.8954 7.8954C12.0349 7.75592 12.0349 7.52979 11.8954 7.39032L10.0051 5.5L11.8954 3.60968C12.0349 3.47021 12.0349 3.24408 11.8954 3.10461C11.7559 2.96513 11.5298 2.96513 11.3903 3.10461L9.5 4.99493L7.60968 3.1046Z" fill="#081041"/>
</svg>
