<svg width="10" height="10" viewBox="0 0 10 10" fill="none" xmlns="http://www.w3.org/2000/svg">
<g clip-path="url(#clip0_361_2525)">
<path d="M4.7917 2.7085C4.62503 2.7085 4.50003 2.8335 4.45836 3.00016C4.4167 3.16683 4.45836 3.3335 4.5417 3.41683L6.08336 4.9585C6.1667 5.04183 6.25003 5.0835 6.37503 5.0835C6.4167 5.0835 6.45836 5.0835 6.50003 5.04183C6.6667 5.00016 6.75003 4.87516 6.7917 4.7085C6.7917 4.62516 6.7917 4.54183 6.7917 4.50016C6.7917 3.50016 6.00003 2.7085 5.00003 2.7085C4.9167 2.7085 4.83336 2.7085 4.7917 2.7085Z" fill="#FF0000"/>
<path d="M3.54166 2.00008C3.99999 1.79175 4.49999 1.66675 4.99999 1.66675C6.83333 1.66675 8.33333 3.16675 8.33333 5.00008C8.33333 5.50008 8.20833 6.00008 7.99999 6.45841C7.91666 6.66675 7.99999 6.91675 8.20833 7.00008C8.24999 7.04175 8.33333 7.04175 8.37499 7.04175C8.54166 7.04175 8.66666 6.95841 8.74999 6.79175C9.04166 6.20842 9.16666 5.58341 9.16666 4.95841C9.16666 2.66675 7.29166 0.791748 4.99999 0.791748C4.37499 0.833415 3.74999 0.958415 3.16666 1.25008C2.95833 1.37508 2.87499 1.62508 2.95833 1.83341C3.08333 2.04175 3.33333 2.12508 3.54166 2.00008Z" fill="#FF0000"/>
<path d="M7.91671 7.3335L6.41671 5.8335L6.00004 5.41683L4.08337 3.50016L1.54171 0.958496C1.37504 0.791829 1.12504 0.791829 0.958374 0.958496C0.791707 1.12516 0.791707 1.37516 0.958374 1.54183L1.79171 2.37516C1.16671 3.12516 0.833374 4.04183 0.833374 5.00016C0.833374 6.12516 1.29171 7.16683 2.04171 7.91683C2.04171 7.91683 2.04171 7.91683 2.08337 7.9585L2.12504 8.00016C2.87504 8.7085 3.87504 9.16683 5.00004 9.16683C5.95837 9.16683 6.87504 8.8335 7.62504 8.2085L8.45837 9.04183C8.54171 9.12516 8.66671 9.16683 8.75004 9.16683C8.83337 9.16683 8.95837 9.12516 9.04171 9.04183C9.20837 8.87516 9.20837 8.62516 9.04171 8.4585L7.91671 7.3335ZM2.37504 2.9585L3.33337 3.91683C3.25004 4.12516 3.20837 4.3335 3.20837 4.54183C3.20837 5.04183 3.41671 5.4585 3.70837 5.79183C3.12504 6.04183 2.66671 6.4585 2.29171 6.9585C1.91671 6.37516 1.66671 5.7085 1.66671 5.00016C1.66671 4.25016 1.91671 3.54183 2.37504 2.9585Z" fill="#FF0000"/>
</g>
<defs>
<clipPath id="clip0_361_2525">
<rect width="10" height="10" fill="white"/>
</clipPath>
</defs>
</svg>
