<svg width="22" height="22" viewBox="0 0 22 22" fill="none" xmlns="http://www.w3.org/2000/svg">
<path opacity="0.9" d="M12.9199 0L8.80077 0L9.54971 6.55319H12.3114L12.9199 0Z" fill="#8A99E9"/>
<path opacity="0.2" d="M20.4082 4.95123L17.57 1.96595L13.3367 7.02407L15.2396 9.02557L20.4082 4.95123Z" fill="#8A99E9"/>
<path opacity="0.6" d="M1.83594 17.4216L4.78372 20.2987L8.82503 15.0859L6.84868 13.1569L1.83594 17.4216Z" fill="#8A99E9"/>
<path opacity="0.4" d="M17.4375 20.1639L20.3156 17.217L15.104 13.1741L13.1744 15.1499L17.4375 20.1639Z" fill="#8A99E9"/>
<path opacity="0.8" d="M4.48633 1.96594L1.60828 4.91284L6.8198 8.95576L8.74941 6.98L4.48633 1.96594Z" fill="#8A99E9"/>
<path opacity="0.5" d="M12.9199 22H8.80077L9.54971 15.4468H12.3114L12.9199 22Z" fill="#8A99E9"/>
<path opacity="0.3" d="M22 13.1064L22 8.98724L15.4468 9.73617L15.4468 12.4979L22 13.1064Z" fill="#8A99E9"/>
<path opacity="0.7" d="M0 13.1064L-1.80054e-07 8.98724L6.55319 9.73617L6.55319 12.4979L0 13.1064Z" fill="#8A99E9"/>
</svg>
