<svg width="20" height="20" viewBox="0 0 20 20" fill="none" xmlns="http://www.w3.org/2000/svg">
<path d="M16.8333 4.38232L11.6666 1.27426C10.6666 0.686249 9.41663 0.686249 8.41663 1.27426L3.16663 4.38232C2.24996 4.97033 1.66663 6.06235 1.66663 7.15437V12.7825C1.66663 13.8745 2.24996 14.9665 3.16663 15.5545L8.33329 18.7466C8.83329 19.0826 9.41663 19.1666 9.99996 19.1666C10.5833 19.1666 11.1666 18.9986 11.6666 18.7466L16.8333 15.6385C17.75 15.0505 18.3333 14.0425 18.3333 12.8665V7.15437C18.3333 6.06235 17.75 4.97033 16.8333 4.38232ZM9.99996 13.1185C8.33329 13.1185 6.91663 11.6904 6.91663 10.0104C6.91663 8.33039 8.24996 6.90236 9.99996 6.90236C11.75 6.90236 13.0833 8.24639 13.0833 10.0104C13.0833 11.6904 11.6666 13.1185 9.99996 13.1185Z" fill="#8A99E9"/>
</svg>
