<svg width="12" height="9" viewBox="0 0 12 9" fill="none" xmlns="http://www.w3.org/2000/svg">
<path fill-rule="evenodd" clip-rule="evenodd" d="M5.5591 0.5C5.5591 0.223858 5.78296 0 6.0591 0C6.33524 0 6.5591 0.223858 6.5591 0.5V1.55937H7.6181C7.89425 1.55937 8.1181 1.78323 8.1181 2.05937C8.1181 2.33551 7.89425 2.55937 7.6181 2.55937H6.5591V3.6181C6.5591 3.89425 6.33524 4.1181 6.0591 4.1181C5.78296 4.1181 5.5591 3.89425 5.5591 3.6181V2.55937H4.5C4.22386 2.55937 4 2.33551 4 2.05937C4 1.78323 4.22386 1.55937 4.5 1.55937H5.5591V0.5Z" fill="#8A99E9"/>
<path fill-rule="evenodd" clip-rule="evenodd" d="M9.68431 1.50476C8.95498 1.50476 8.42664 2.24585 8.42664 3.06686C8.42664 3.88786 8.95498 4.62895 9.68431 4.62895C10.4137 4.62895 10.942 3.88786 10.942 3.06686C10.942 2.24585 10.4137 1.50476 9.68431 1.50476ZM3.08684 5.57255C2.88866 5.75095 2.71064 5.9441 2.55104 6.14595C2.25896 6.51535 2.03049 6.91123 1.85224 7.29455C1.70551 7.61009 1.64719 8.04291 1.62414 8.355H0.569428C0.251541 8.355 -0.0453364 8.05356 0.00576487 7.64304C0.0481362 7.30266 0.161476 6.74432 0.475946 6.26372C0.801885 5.76561 1.3303 5.37412 2.14269 5.37412C2.51096 5.37412 2.82332 5.44789 3.08684 5.57255ZM10.3769 8.355H11.4314C11.7489 8.355 12.0475 8.05326 11.9936 7.64086C11.9489 7.29859 11.8293 6.73853 11.4988 6.25739C11.1569 5.7597 10.6072 5.37412 9.76523 5.37412C9.4284 5.37412 9.14039 5.44142 8.89539 5.55571C9.10112 5.73878 9.28536 5.93773 9.44999 6.14595C9.74207 6.51535 9.97054 6.91123 10.1488 7.29455C10.2955 7.61009 10.3538 8.04291 10.3769 8.355ZM1.05847 3.06686C1.05847 2.24585 1.58681 1.50476 2.31615 1.50476C3.04549 1.50476 3.57383 2.24585 3.57383 3.06686C3.57383 3.88786 3.04549 4.62895 2.31615 4.62895C1.58681 4.62895 1.05847 3.88786 1.05847 3.06686ZM6.00028 5.23099C4.73539 5.23099 3.86321 5.69468 3.27263 6.29676C2.68851 6.89226 2.39966 7.60249 2.26206 8.06956C2.11303 8.57544 2.47609 9.00008 2.88119 9.00008H9.11936C9.52447 9.00008 9.88753 8.57544 9.73849 8.06956C9.60089 7.60248 9.31204 6.89226 8.72792 6.29676C8.13735 5.69468 7.26516 5.23099 6.00028 5.23099Z" fill="#8A99E9"/>
</svg>
